<svg xmlns="http://www.w3.org/2000/svg" viewBox="0 0 512 512">
  <defs>
    <linearGradient id="bg" x1="0%" y1="0%" x2="100%" y2="100%">
      <stop offset="0%" style="stop-color:#1a1a2e"/>
      <stop offset="100%" style="stop-color:#16213e"/>
    </linearGradient>
    <linearGradient id="skull" x1="0%" y1="0%" x2="0%" y2="100%">
      <stop offset="0%" style="stop-color:#f5f5f5"/>
      <stop offset="100%" style="stop-color:#d4d4d4"/>
    </linearGradient>
    <linearGradient id="glow" x1="0%" y1="0%" x2="0%" y2="100%">
      <stop offset="0%" style="stop-color:#8b5cf6"/>
      <stop offset="100%" style="stop-color:#6366f1"/>
    </linearGradient>
  </defs>

  <!-- Background rounded square -->
  <rect width="512" height="512" rx="100" fill="url(#bg)"/>

  <!-- Skull main shape -->
  <ellipse cx="256" cy="220" rx="140" ry="130" fill="url(#skull)"/>

  <!-- Skull jaw -->
  <rect x="156" y="280" width="200" height="80" rx="20" fill="url(#skull)"/>

  <!-- Left eye socket -->
  <ellipse cx="200" cy="200" rx="45" ry="50" fill="#1a1a2e"/>
  <!-- Left eye glow -->
  <ellipse cx="200" cy="200" rx="25" ry="28" fill="url(#glow)"/>
  <ellipse cx="195" cy="195" rx="8" ry="10" fill="#fff" opacity="0.6"/>

  <!-- Right eye socket -->
  <ellipse cx="312" cy="200" rx="45" ry="50" fill="#1a1a2e"/>
  <!-- Right eye glow -->
  <ellipse cx="312" cy="200" rx="25" ry="28" fill="url(#glow)"/>
  <ellipse cx="307" cy="195" rx="8" ry="10" fill="#fff" opacity="0.6"/>

  <!-- Nose -->
  <path d="M256 250 L240 290 L256 285 L272 290 Z" fill="#1a1a2e"/>

  <!-- Teeth -->
  <rect x="176" y="330" width="24" height="35" rx="4" fill="#1a1a2e"/>
  <rect x="208" y="330" width="24" height="35" rx="4" fill="#1a1a2e"/>
  <rect x="244" y="330" width="24" height="35" rx="4" fill="#1a1a2e"/>
  <rect x="280" y="330" width="24" height="35" rx="4" fill="#1a1a2e"/>
  <rect x="312" y="330" width="24" height="35" rx="4" fill="#1a1a2e"/>

  <!-- Cheekbones highlight -->
  <ellipse cx="140" cy="240" rx="20" ry="30" fill="rgba(139,92,246,0.2)"/>
  <ellipse cx="372" cy="240" rx="20" ry="30" fill="rgba(139,92,246,0.2)"/>
</svg>
